<svg width="77" height="103" viewBox="0 0 77 103" fill="none" xmlns="http://www.w3.org/2000/svg">
<path d="M0.472 103V96.952H2.344C5.608 96.952 8.392 96.376 10.696 95.224C13 93.976 14.152 91.096 14.152 86.584V16.024C14.152 11.8 12.952 9.112 10.552 7.96C8.248 6.80799 5.512 6.23199 2.344 6.23199H0.472V0.183993H40.936C53.032 0.183993 61.96 2.87199 67.72 8.24799C73.48 13.528 76.36 20.872 76.36 30.28C76.36 35.944 75.112 41.272 72.616 46.264C70.216 51.256 66.184 55.288 60.52 58.36C54.856 61.432 47.272 62.968 37.768 62.968H28.696V87.304C28.696 91.528 29.848 94.216 32.152 95.368C34.552 96.424 37.336 96.952 40.504 96.952H45.256V103H0.472ZM36.328 56.2C45.064 56.2 51.304 54.28 55.048 50.44C58.888 46.504 60.808 39.976 60.808 30.856C60.808 22.792 59.128 16.84 55.768 13C52.408 9.064 46.648 7.096 38.488 7.096H28.696V56.2H36.328Z" fill="black"/>
</svg>
